<svg width="104" height="104" viewBox="0 0 104 104" fill="none" xmlns="http://www.w3.org/2000/svg">
<path fill-rule="evenodd" clip-rule="evenodd" d="M52.0012 75.7558L45.2228 95.8723C42.4741 104.016 32.8732 106.819 27.1934 100.656C25.9886 100.965 24.7313 101.003 23.5106 100.765C22.29 100.527 21.1359 100.021 20.1303 99.2811C19.1248 98.5413 18.2923 97.5866 17.692 96.4846C17.0917 95.3827 16.7383 94.1605 16.6569 92.9047C9.12134 89.3397 8.77194 79.2264 15.5892 74.0657L32.3957 61.3307L11.4041 61.032C2.89803 60.9062 -2.69247 52.5224 1.33347 45.1526C0.67215 44.0872 0.250037 42.8878 0.0969642 41.639C-0.056109 40.3903 0.0635943 39.1228 0.447613 37.926C0.831633 36.7293 1.47059 35.6325 2.31934 34.7133C3.16808 33.7941 4.20589 33.0748 5.3594 32.6063C6.38045 24.2461 15.7717 20.7911 22.7249 25.7554L39.8807 38.003L33.6691 17.6978C31.1728 9.49477 37.2641 1.46076 45.4829 3.09586C46.279 2.12876 47.2753 1.35068 48.4014 0.816718C49.5275 0.28276 50.7558 0.00598145 51.9993 0.00598145C53.2428 0.00598145 54.4711 0.28276 55.5972 0.816718C56.7233 1.35068 57.7196 2.12876 58.5157 3.09586C66.7268 1.46076 72.822 9.49477 70.3295 17.6978L64.1179 38.003L81.2737 25.7515C88.2269 20.7872 97.6143 24.2422 98.6392 32.6063C99.7931 33.0738 100.831 33.7924 101.68 34.7111C102.53 35.6299 103.169 36.7265 103.553 37.9231C103.937 39.1198 104.057 40.3873 103.903 41.6359C103.75 42.8846 103.327 44.0838 102.665 45.1487C106.691 52.5224 101.112 60.9023 92.5945 61.0281L71.6068 61.3307L88.4132 74.0617C95.2228 79.2186 94.885 89.3358 87.3417 92.9008C87.2603 94.1565 86.9069 95.3787 86.3066 96.4807C85.7063 97.5827 84.8738 98.5374 83.8683 99.2771C82.8627 100.017 81.7086 100.523 80.488 100.761C79.2673 100.999 78.01 100.961 76.8052 100.652C71.1332 106.811 61.5245 104.016 58.7758 95.8644L52.0012 75.7558Z" fill="#D21E6A"/>
<path fill-rule="evenodd" clip-rule="evenodd" d="M52.0024 75.7533V0H52.3713C53.5522 0.0514669 54.7094 0.352577 55.7685 0.883968C56.8276 1.41536 57.7651 2.16527 58.5208 3.08547C66.6115 1.51326 72.8465 9.43722 70.323 17.6874L64.1113 37.9926L81.2671 25.7411C88.2203 20.7768 97.6038 24.2318 98.6326 32.596C99.7865 33.0634 100.825 33.782 101.674 34.7008C102.523 35.6195 103.162 36.7161 103.546 37.9127C103.93 39.1094 104.05 40.3769 103.897 41.6255C103.743 42.8742 103.321 44.0734 102.659 45.1383C106.688 52.512 101.106 60.8919 92.5879 61.0177L71.6002 61.3203L88.4067 74.0514C95.2162 79.2082 94.8746 89.3254 87.3352 92.8904C87.2537 94.1462 86.9003 95.3684 86.3 96.4703C85.6998 97.5723 84.8673 98.527 83.8617 99.2668C82.8561 100.007 81.7021 100.513 80.4814 100.751C79.2608 100.988 78.0034 100.951 76.7986 100.641C71.1266 106.805 61.5179 104.006 58.7693 95.854L52.0024 75.7533Z" fill="#E7629A"/>
<path d="M59.8314 62.675C64.16 58.2927 64.16 51.1875 59.8314 46.8052C55.5029 42.4228 48.4849 42.4228 44.1564 46.8052C39.8278 51.1875 39.8278 58.2927 44.1564 62.675C48.4849 67.0574 55.5029 67.0574 59.8314 62.675Z" fill="#FFDA44"/>
<path fill-rule="evenodd" clip-rule="evenodd" d="M51.9958 43.5157C54.9001 43.5708 57.667 44.7774 59.7017 46.8763C61.7363 48.9752 62.8762 51.7986 62.8762 54.7394C62.8762 57.6802 61.7363 60.5036 59.7017 62.6025C57.667 64.7014 54.9001 65.908 51.9958 65.9631V43.5157Z" fill="#FFB655"/>
</svg>
